<?xml version="1.0" encoding="UTF-8"?>
<svg width="170px" height="25px" viewBox="0 0 170 25" version="1.1" xmlns="http://www.w3.org/2000/svg" xmlns:xlink="http://www.w3.org/1999/xlink">
    <!-- Generator: Sketch 60.1 (88133) - https://sketch.com -->
    <title>Banner Logo </title>
    <desc>Created with Sketch.</desc>
    <g id="Banner-Logo-" stroke="none" stroke-width="1" fill="none" fill-rule="evenodd">
        <g id="ERTL-YANG_Logo" transform="translate(0.000000, 1.000000)" fill-rule="nonzero">
            <polygon id="Path" fill="#FFFFFF" points="3.83236994 4.32369942 3.83236994 10.1213873 13.4624277 10.1213873 13.4624277 12.6763006 3.83236994 12.6763006 3.83236994 18.2774566 14.4450867 18.2774566 14.4450867 21.0289017 0.687861272 21.0289017 0.687861272 1.47398844 14.4450867 1.47398844 14.4450867 4.32369942"></polygon>
            <path d="M34.6878613,21.0289017 L31.0520231,21.0289017 L25.5491329,13.0693642 L21.8150289,13.0693642 L21.8150289,21.1271676 L19.0635838,21.1271676 L19.0635838,1.47398844 L25.4508671,1.47398844 C28.0057803,1.47398844 29.3815029,1.76878613 30.5606936,2.65317919 C32.0346821,3.63583815 32.9190751,5.40462428 32.9190751,7.2716763 C32.9190751,10.0231214 31.150289,12.1849711 28.5953757,12.7745665 L34.6878613,21.0289017 Z M25.9421965,10.5144509 C27.2196532,10.5144509 28.2023121,10.3179191 28.8901734,9.8265896 C29.6763006,9.33526012 30.1676301,8.35260116 30.1676301,7.3699422 C30.1676301,6.38728324 29.7745665,5.60115607 28.9884393,5.01156069 C28.300578,4.52023121 27.5144509,4.32369942 26.1387283,4.32369942 L21.9132948,4.22543353 L21.9132948,10.5144509 L25.9421965,10.5144509 L25.9421965,10.5144509 Z" id="Shape" fill="#FFFFFF"></path>
            <polygon id="Path" fill="#FFFFFF" points="45.7919075 21.0289017 42.8439306 21.0289017 42.8439306 4.32369942 37.0462428 4.32369942 37.0462428 1.47398844 51.5895954 1.47398844 51.5895954 4.32369942 45.7919075 4.32369942"></polygon>
            <polygon id="Path" fill="#FFFFFF" points="59.6473988 18.2774566 68.2947977 18.2774566 68.2947977 21.0289017 56.699422 21.0289017 56.699422 1.47398844 59.6473988 1.47398844"></polygon>
            <polygon id="Path" fill="#FFFFFF" points="93.1560694 1.47398844 96.6936416 1.47398844 101.508671 9.33526012 106.421965 1.47398844 109.861272 1.47398844 102.982659 12.5780347 102.982659 21.0289017 100.034682 21.0289017 100.034682 12.5780347"></polygon>
            <path d="M113.49711,16.3121387 L111.33526,21.0289017 L108.190751,21.0289017 L117.820809,0.294797688 L127.156069,21.0289017 L123.913295,21.0289017 L121.849711,16.3121387 L113.49711,16.3121387 Z M117.722543,6.87861272 L114.676301,13.4624277 L120.572254,13.4624277 L117.722543,6.87861272 Z" id="Shape" fill="#FFFFFF"></path>
            <polygon id="Path" fill="#FFFFFF" points="130.398844 0.196531792 143.959538 15.0346821 143.959538 1.47398844 146.809249 1.47398844 146.809249 22.2080925 133.248555 7.3699422 133.248555 21.0289017 130.398844 21.0289017"></polygon>
            <path d="M169.115607,10.9075145 L169.115607,11.7919075 C169.115607,14.3468208 168.624277,16.1156069 167.346821,17.6878613 C165.676301,20.0462428 162.82659,21.4219653 159.976879,21.4219653 C154.473988,21.4219653 150.052023,16.9017341 150.052023,11.300578 C150.052023,5.60115607 154.572254,1.08092486 160.271676,1.08092486 C162.433526,1.08092486 164.49711,1.76878613 166.16763,2.94797688 C166.855491,3.43930636 167.445087,3.93063584 168.32948,5.01156069 L166.265896,7.07514451 C164.595376,4.8150289 162.82659,3.83236994 160.369942,3.83236994 C156.242775,3.83236994 153.098266,7.07514451 153.098266,11.2023121 C153.098266,13.3641618 153.884393,15.2312139 155.456647,16.6069364 C156.83237,17.8843931 158.601156,18.5722543 160.17341,18.5722543 C163.121387,18.5722543 165.774566,16.3121387 165.971098,13.5606936 L161.156069,13.5606936 L161.156069,10.8092486 L169.115607,10.8092486 L169.115607,10.9075145 Z" id="Path" fill="#FFFFFF"></path>
            <path d="M74.4855491,9.04046243 C74.4855491,9.04046243 77.433526,11.5953757 81.6589595,11.5953757 C85.8843931,11.5953757 88.8323699,9.04046243 88.8323699,9.04046243 L91.4855491,11.6936416 C91.4855491,11.6936416 88.3410405,15.2312139 81.5606936,15.2312139 C81.5606936,15.2312139 75.4682081,15.4277457 71.734104,11.6936416 L74.4855491,9.04046243 Z" id="Path" fill="#F6C00F"></path>
        </g>
    </g>
</svg>